<?xml version="1.0" encoding="UTF-8"?>
<svg id="Layer_1" data-name="Layer 1" xmlns="http://www.w3.org/2000/svg" viewBox="0 0 5000 3000">
  <defs>
    <style>
      .cls-1 {
        fill: #ffda00;
      }

      .cls-2 {
        fill: #ebf8fc;
      }

      .cls-3 {
        fill: #fff800;
      }

      .cls-4 {
        fill: #0d3051;
      }

      .cls-5 {
        fill: #0f375c;
      }
    </style>
  </defs>
  <path class="cls-1" d="M3474.23,392.37l-483.83-244.54c-547.61,927.07-991.11,0-991.11,0-74.97,132.6-483.83,244.54-483.83,244.54,0,0,413.84,608.31.26,1242.75h1958.26c-413.54-634.44.26-1242.75.26-1242.75Z"/>
  <path class="cls-3" d="M3570.81,2633.44c-1.02,33.07-14.37,63.12-35.65,85.71-21.28,22.52-50.58,37.59-83.55,40.66-257.57,50.71-518.08,80.77-779.15,90.17-29.11-22.1-58.24-37-86.56-46.36-18.24-6.02-36.18-9.85-53.56-11.82-120.22-13.65-215.07,58.18-215.07,58.18-261.07-9.4-521.58-39.45-779.15-90.17-32.97-3.08-62.27-18.11-83.55-40.66-21.28-22.59-34.64-52.65-35.65-85.71-5.04-163.9,1.74-342.46,12.05-500.34,4.29-65.19,9.13-126.84,14.05-182.46,7.46-85.22,14.96-156.3,20.33-204.33,4.62-41.45,22.1-80.54,50.45-111.19,343.64-371.73,308.12-712.2,202.01-947.27-38.93-86.47-87.48-158.69-130.18-212.94-27.96-35.56-53.4-63.39-72.09-82.54-18.56-19.02-20.82-48.98-4.62-70.06,0,0,.07-.07.1-.16,3.76-6.19,121.96-195.3,441.4-214.55,23.97-1.41,44.79,16.3,46.95,40.21,2.68,29.37,7.96,72.42,18.17,123.2,13.46,66.56,35.39,146.35,71.24,225.68,61.68,136.27,164.32,271.29,335.36,336.08,22.36,8.51,45.97,15.81,70.75,21.74,24.78-5.93,48.39-13.23,70.75-21.74,107.81-40.83,188.42-109.58,248.76-188.94,35.43-46.52,63.81-96.68,86.56-147.07l.07-.07c35.85-79.3,57.82-159.12,71.24-225.68,10.22-50.75,15.49-93.83,18.17-123.2,2.16-23.93,22.95-41.61,46.95-40.21,319.45,19.25,437.64,208.36,441.4,214.55.07.1.1.16.1.16,16.17,21.08,13.91,51.04-4.62,70.06-18.73,19.15-44.13,46.98-72.09,82.54-42.69,54.25-91.25,126.47-130.18,212.94-106.08,235.07-141.63,575.57,202.01,947.27,28.35,30.65,45.8,69.74,50.45,111.19,5.37,48.03,12.87,119.11,20.33,204.33,4.88,55.59,9.72,117.28,14.05,182.46,10.31,157.87,17.09,336.44,12.05,500.34h-.07Z"/>
  <path class="cls-2" d="M3402.13,474.91c-42.69,54.25-91.25,126.47-130.18,212.94-108.57-82.18-233.96-147.43-370.98-191.17,35.85-79.3,57.82-159.12,71.24-225.68,159.81,46.85,305.27,116.46,429.91,203.91h0Z"/>
  <path class="cls-2" d="M2088.73,496.68c-137.02,43.71-262.41,108.99-370.98,191.17-38.93-86.47-87.48-158.69-130.18-212.94,124.64-87.42,270.11-157.05,429.91-203.91,13.46,66.56,35.39,146.35,71.24,225.68h0Z"/>
  <path class="cls-1" d="M2672.45,2849.98c-177.29-134.76-355.2,0-355.2,0,166.52-892.99,106.83-2037,106.83-2037,22.36,8.51,45.97,15.81,70.75,21.74,24.78-5.93,48.39-13.23,70.75-21.74,0,0-59.69,1144.04,106.83,2037h.03Z"/>
  <g>
    <g>
      <path class="cls-5" d="M1430.91,2133.1c124.22,11.2,252.62,20.5,384.57,27.7,2.19-61.13,6.02-122.22,11.66-183.08-131.09-7.01-258.68-16.08-382.21-27.04,0,0-51.83,74.65-14.05,182.46l.03-.03Z"/>
      <path class="cls-5" d="M2494.84,1995.33c-191.37,0-378.44-4.26-559.5-12.31-5.6,60.93-9.46,122.06-11.72,183.21,184.65,8.45,375.69,12.87,571.22,12.87s386.56-4.42,571.22-12.87c-2.26-61.13-6.12-122.28-11.72-183.21-181.05,8.05-368.13,12.31-559.5,12.31Z"/>
      <path class="cls-5" d="M3544.72,1950.64c-123.5,10.97-251.12,20.07-382.21,27.04,5.63,60.86,9.46,121.96,11.66,183.08,131.94-7.2,260.35-16.5,384.57-27.7,30.15-105.55-14.05-182.46-14.05-182.46l.03.03Z"/>
    </g>
    <g>
      <path class="cls-4" d="M2667.84,2085.99c0,26.22-1.02,51.89-2.91,76.84-.75,10.44-7.53,19.58-17.42,23.02-33,11.46-71.83,19.32-114.03,22.26-12.57.92-25.47,1.41-38.6,1.41-16.47,0-32.58-.75-48.23-2.16-23.28-2.03-45.38-5.63-65.97-10.44-13.55-3.18-26.36-6.88-38.44-11.07-9.89-3.44-16.67-12.57-17.42-23.02-1.87-24.95-2.91-50.58-2.91-76.84,0-4.03,0-8.05.1-12.11.23-22.03,1.18-43.68,2.78-64.73.75-10.48,7.53-19.61,17.42-23.08,25.86-8.97,55.4-15.75,87.29-19.68,20.86-2.59,42.79-3.99,65.38-3.99,38.86,0,75.76,4.09,108.89,11.39,15.49,3.44,30.12,7.53,43.77,12.24,4.78,1.67,8.81,4.62,11.88,8.48,3.18,4.09,5.17,9.13,5.53,14.57,1.6,21.02,2.59,42.63,2.78,64.69.1,4.03.1,8.05.1,12.15v.06Z"/>
      <path class="cls-2" d="M2667.7,2073.84l-134.27,134.27c-12.57.92-25.47,1.41-38.6,1.41-16.47,0-32.58-.75-48.23-2.16l212.78-212.78c3.18,4.09,5.17,9.13,5.53,14.57,1.6,21.02,2.59,42.63,2.78,64.69Z"/>
      <path class="cls-2" d="M2603.73,1973.82l-223.09,223.09c-13.55-3.18-26.36-6.88-38.44-11.07-9.89-3.44-16.67-12.57-17.42-23.02-1.87-24.95-2.91-50.58-2.91-76.84,0-4.03,0-8.05.1-12.11l107.49-107.49c20.86-2.59,42.79-3.99,65.38-3.99,38.86,0,75.76,4.09,108.89,11.39v.03Z"/>
    </g>
  </g>
  <path class="cls-2" d="M1838.13,832.76c3.99-1.11,10.41,8.19,18.69,26.26,2.06,4.52,4.29,9.56,6.52,15.16,2.03,5.63,4.16,11.82,6.35,18.47,2.19,6.68,4.49,13.82,6.81,21.44,2.13,7.66,4.06,15.85,6.19,24.46,4.52,17.16,7.6,36.34,11.07,57,2.65,20.72,5.34,43.02,6.19,66.66,2.13,47.18-.46,99.73-10.97,153.75-10.77,53.92-27.63,104.11-48.75,146.84-20.69,42.99-44.98,78.61-67.84,106.24-46.2,55.23-86.34,77.56-91.31,71.01-5.27-6.38,22.49-38.17,56.84-95.6,16.96-28.75,35.65-63.65,51.96-104.18,16.73-40.34,30.45-86.43,40.34-135.77,9.59-49.44,13.62-97.57,14.57-141.6.69-22.03-.07-43.02-.46-62.76-1.24-19.68-1.74-38.14-3.47-54.97-.62-8.45-1.24-16.5-1.8-24.13-.82-7.6-1.54-14.8-2.13-21.54-.59-6.78-1.05-13.1-1.41-18.96-.52-5.83-1.05-11.13-1.34-15.98-1.21-19.35-.07-30.74,3.93-31.86l.03.07Z"/>
  <path class="cls-2" d="M1522.16,2627.97c-16.53-.46-27.31-98.32-24.1-218.64,3.21-120.32,19.22-217.46,35.75-217.03,16.53.46,27.31,98.32,24.1,218.64s-19.22,217.46-35.75,217.03Z"/>
</svg>