<?xml version="1.0" encoding="UTF-8"?>
<svg id="Layer_1" data-name="Layer 1" xmlns="http://www.w3.org/2000/svg" viewBox="0 0 5000 3000">
  <defs>
    <style>
      .cls-1 {
        fill: #0f375c;
      }

      .cls-2 {
        fill: #ffda00;
      }

      .cls-3 {
        fill: #fff800;
      }

      .cls-4 {
        fill: #0d3051;
      }

      .cls-5 {
        fill: #ebf8fc;
      }
    </style>
  </defs>
  <path class="cls-2" d="M3542.54,2099.34l-147.78-74.69c-167.26,283.16-302.72,0-302.72,0-22.9,40.5-147.78,74.69-147.78,74.69,0,0,126.4,185.8.08,379.58h598.12c-126.31-193.78.08-379.58.08-379.58Z"/>
  <path class="cls-3" d="M3572.04,2783.84c-.31,10.1-4.39,19.28-10.89,26.18-6.5,6.88-15.45,11.48-25.52,12.42-78.67,15.49-158.24,24.67-237.98,27.54-8.89-6.75-17.79-11.3-26.44-14.16-5.57-1.84-11.05-3.01-16.36-3.61-36.72-4.17-65.69,17.77-65.69,17.77-79.74-2.87-159.31-12.05-237.98-27.54-10.07-.94-19.02-5.53-25.52-12.42-6.5-6.9-10.58-16.08-10.89-26.18-1.54-50.06.53-104.6,3.68-152.82,1.31-19.91,2.79-38.74,4.29-55.73,2.28-26.03,4.57-47.74,6.21-62.41,1.41-12.66,6.75-24.6,15.41-33.96,104.96-113.54,94.11-217.53,61.7-289.33-11.89-26.41-26.72-48.47-39.76-65.04-8.54-10.86-16.31-19.36-22.02-25.21-5.67-5.81-6.36-14.96-1.41-21.4,0,0,.02-.02.03-.05,1.15-1.89,37.25-59.65,134.82-65.53,7.32-.43,13.68,4.98,14.34,12.28.82,8.97,2.43,22.12,5.55,37.63,4.11,20.33,10.81,44.7,21.76,68.93,18.84,41.62,50.19,82.86,102.43,102.65,6.83,2.6,14.04,4.83,21.61,6.64,7.57-1.81,14.78-4.04,21.61-6.64,32.93-12.47,57.55-33.47,75.98-57.71,10.82-14.21,19.49-29.53,26.44-44.92l.02-.02c10.95-24.22,17.66-48.6,21.76-68.93,3.12-15.5,4.73-28.66,5.55-37.63.66-7.31,7.01-12.71,14.34-12.28,97.57,5.88,133.67,63.64,134.82,65.53.02.03.03.05.03.05,4.94,6.44,4.25,15.59-1.41,21.4-5.72,5.85-13.48,14.35-22.02,25.21-13.04,16.57-27.87,38.63-39.76,65.04-32.4,71.8-43.26,175.8,61.7,289.33,8.66,9.36,13.99,21.3,15.41,33.96,1.64,14.67,3.93,36.38,6.21,62.41,1.49,16.98,2.97,35.82,4.29,55.73,3.15,48.22,5.22,102.76,3.68,152.82Z"/>
  <path class="cls-5" d="M3520.52,2124.55c-13.04,16.57-27.87,38.63-39.76,65.04-33.16-25.1-71.46-45.03-113.31-58.39,10.95-24.22,17.66-48.6,21.76-68.93,48.81,14.31,93.24,35.57,131.31,62.28Z"/>
  <path class="cls-5" d="M3119.36,2131.2c-41.85,13.35-80.15,33.29-113.31,58.39-11.89-26.41-26.72-48.47-39.76-65.04,38.07-26.7,82.5-47.97,131.31-62.28,4.11,20.33,10.81,44.7,21.76,68.93Z"/>
  <path class="cls-2" d="M3297.65,2849.98c-54.15-41.16-108.49,0-108.49,0,50.86-272.75,32.63-622.17,32.63-622.17,6.83,2.6,14.04,4.83,21.61,6.64,7.57-1.81,14.78-4.04,21.61-6.64,0,0-18.23,349.43,32.63,622.17Z"/>
  <g>
    <g>
      <path class="cls-1" d="M2918.44,2631.02c37.94,3.42,77.16,6.26,117.46,8.46.67-18.67,1.84-37.33,3.56-55.92-40.04-2.14-79.01-4.91-116.74-8.26,0,0-15.83,22.8-4.29,55.73Z"/>
      <path class="cls-1" d="M3243.4,2588.94c-58.45,0-115.59-1.3-170.89-3.76-1.71,18.61-2.89,37.28-3.58,55.96,56.4,2.58,114.75,3.93,174.47,3.93s118.07-1.35,174.47-3.93c-.69-18.67-1.87-37.35-3.58-55.96-55.3,2.46-112.44,3.76-170.89,3.76Z"/>
      <path class="cls-1" d="M3564.07,2575.29c-37.72,3.35-76.7,6.13-116.74,8.26,1.72,18.59,2.89,37.25,3.56,55.92,40.3-2.2,79.52-5.04,117.46-8.46,9.21-32.24-4.29-55.73-4.29-55.73Z"/>
    </g>
    <g>
      <path class="cls-4" d="M3296.24,2616.63c0,8.01-.31,15.85-.89,23.47-.23,3.19-2.3,5.98-5.32,7.03-10.08,3.5-21.94,5.9-34.83,6.8-3.84.28-7.78.43-11.79.43-5.03,0-9.95-.23-14.73-.66-7.11-.62-13.86-1.72-20.15-3.19-4.14-.97-8.05-2.1-11.74-3.38-3.02-1.05-5.09-3.84-5.32-7.03-.57-7.62-.89-15.45-.89-23.47,0-1.23,0-2.46.03-3.7.07-6.73.36-13.34.85-19.77.23-3.2,2.3-5.99,5.32-7.05,7.9-2.74,16.92-4.81,26.66-6.01,6.37-.79,13.07-1.22,19.97-1.22,11.87,0,23.14,1.25,33.26,3.48,4.73,1.05,9.2,2.3,13.37,3.74,1.46.51,2.69,1.41,3.63,2.59.97,1.25,1.58,2.79,1.69,4.45.49,6.42.79,13.02.85,19.76.03,1.23.03,2.46.03,3.71Z"/>
      <path class="cls-5" d="M3296.2,2612.92l-41.01,41.01c-3.84.28-7.78.43-11.79.43-5.03,0-9.95-.23-14.73-.66l64.99-64.99c.97,1.25,1.58,2.79,1.69,4.45.49,6.42.79,13.02.85,19.76Z"/>
      <path class="cls-5" d="M3276.66,2582.37l-68.14,68.14c-4.14-.97-8.05-2.1-11.74-3.38-3.02-1.05-5.09-3.84-5.32-7.03-.57-7.62-.89-15.45-.89-23.47,0-1.23,0-2.46.03-3.7l32.83-32.83c6.37-.79,13.07-1.22,19.97-1.22,11.87,0,23.14,1.25,33.26,3.48Z"/>
    </g>
  </g>
  <path class="cls-5" d="M3042.82,2233.85c1.22-.34,3.18,2.5,5.71,8.02.63,1.38,1.31,2.92,1.99,4.63.62,1.72,1.27,3.61,1.94,5.64.67,2.04,1.37,4.22,2.08,6.55.65,2.34,1.24,4.84,1.89,7.47,1.38,5.24,2.32,11.1,3.38,17.41.81,6.33,1.63,13.14,1.89,20.36.65,14.41-.14,30.46-3.35,46.96-3.29,16.47-8.44,31.8-14.89,44.85-6.32,13.13-13.74,24.01-20.72,32.45-14.11,16.87-26.37,23.69-27.89,21.69-1.61-1.95,6.87-11.66,17.36-29.2,5.18-8.78,10.89-19.44,15.87-31.82,5.11-12.32,9.3-26.4,12.32-41.47,2.93-15.1,4.16-29.8,4.45-43.25.21-6.73-.02-13.14-.14-19.17-.38-6.01-.53-11.65-1.06-16.79-.19-2.58-.38-5.04-.55-7.37-.25-2.32-.47-4.52-.65-6.58-.18-2.07-.32-4-.43-5.79-.16-1.78-.32-3.4-.41-4.88-.37-5.91-.02-9.39,1.2-9.73Z"/>
  <path class="cls-5" d="M2946.31,2782.17c-5.05-.14-8.34-30.03-7.36-66.78.98-36.75,5.87-66.42,10.92-66.29,5.05.14,8.34,30.03,7.36,66.78-.98,36.75-5.87,66.42-10.92,66.29Z"/>
</svg>