<?xml version="1.0" encoding="UTF-8"?>
<svg id="Layer_1" data-name="Layer 1" xmlns="http://www.w3.org/2000/svg" viewBox="0 0 300 120">
  <defs>
    <style>
      .cls-1 {
        fill: #121726;
      }
    </style>
  </defs>
  <path class="cls-1" d="M40.84,55.87c.01-.11.12-.18.22-.15,4.3,1.14,8.33.56,12.1-1.74,3.11-1.9,5.83-4.15,8.16-6.75,2.29-2.55,4.66-5.42,7.13-8.61.79-1.02,2.4-2.93,4.84-5.73,4.43-5.07,9.96-9.11,16.67-10.66,3.04-.7,6.82-.65,9.6-.37,3.9.4,7.76,1.88,10.9,4.56,1.77,1.52,2.94,3.46,3.5,5.83.4,1.68.41,4.05-.68,5.53-.17.24-.5.29-.74.11-1.49-1.11-3.11-1.94-4.86-2.47-1.97-.6-3.82-.51-5.55.27-4.53,2.05-6.32,7.44-4.56,12.02,2.34,6.1,8.29,8.7,14.61,8.11,3.35-.31,6.5-1.52,9.46-3.64,4.43-3.18,8.12-7.05,11.24-11.06,4.39-5.65,6.17-8.35,10.38-12.11,4.34-3.88,10.08-6.91,15.78-7.21,2.41-.12,4.33-.12,5.76,0,1.53.14,3.27.49,5.22,1.06,4.41,1.3,8.85,4.11,10.22,8.69.5,1.68.45,3.36-.15,5.03-.26.74-.68,1.15-1.25,1.25-.15.03-.31-.01-.43-.11-2.53-1.98-5.95-3.38-9.04-2.32-1.79.61-3.21,1.62-4.23,3-1.35,1.83-2.11,3.86-2.3,6.09-.08,1.02.14,2.2.68,3.55,2.32,5.85,7.56,7.96,13.59,7.8.66-.02,1.17-.08,1.55-.18.69-.19,1.28-.15,2.06-.35,4.75-1.28,8.56-4.08,12.04-7.5,2.29-2.26,4.13-4.27,5.52-6.03,7.08-8.98,15.24-20.03,28.13-20.07,2.15,0,3.71.05,4.71.16,2.98.33,5.74,1.18,8.63,3,1.53.96,2.62,1.86,3.26,2.69,1.96,2.52,2.99,6.29,1.76,9.39-.2.51-.71.82-1.26.76-.05,0-.22-.11-.49-.31-3.93-2.85-8.99-3.37-12.39.57-1.23,1.43-2,3.17-2.32,5.23-.75,4.84,2.13,9.54,6.39,11.85,3.55,1.92,8.16,2.4,11.98,2.14,4.7-.32,9.22-1.37,13.57-3.17.23-.09.47.12.39.36-.15.45-.3.95-.45,1.49-.64,2.27-1.69,4.4-3.15,6.38-3.02,4.13-8.09,6.97-13.08,7.96-2.08.42-4.5.6-7.27.56-.55-.01-1.3-.07-2.23-.2-1.46-.19-2.2-.29-2.21-.29-3.55-.5-6.72-1.97-10.76-3.69-1.85-.78-4.06-1.38-6.64-1.78-6.7-1.06-13.31-.49-19.82,1.69-4.96,1.66-8.59,2.83-10.9,3.49-2.6.75-5.77,1.22-9.51,1.39-4.68.22-9.21-.48-13.61-2.09-1.33-.49-3.06-1.24-5.18-2.28-7.76-3.78-16.55-3.74-24.84-1.19-3.97,1.22-7.29,2.46-11.5,3.63-8.77,2.43-17.07,1.86-24.91-1.71-3.08-1.4-5.43-2.36-7.06-2.88-4.75-1.52-9.54-1.89-14.39-1.13-1.59.25-4.02.82-7.29,1.71-.27.07-1.77.44-4.5,1.11-3.69.9-7.34,1.25-10.77.99-1.67-.12-3.33-.59-4.95-1.4-4.18-2.07-5.27-5.92-4.75-10.3h0Z"/>
  <path class="cls-1" d="M41.04,82.41c3.12.87,5.84,1.21,8.16,1.03,4.45-.34,8.7-1.58,12.74-3.7.6-.32,2.84-1.39,6.73-3.22,1.84-.87,3.97-1.44,6.38-1.73,5.16-.61,10.1.1,14.82,2.11,1.84.79,3.62,1.62,5.34,2.52,2.29,1.19,4.08,2,5.37,2.43,5.59,1.87,12.11,2.07,17.77.01,1.17-.42,2.46-.77,3.53-1.25.8-.36,3.43-1.55,7.89-3.59,2.85-1.3,5.75-2.08,8.72-2.32,2.09-.17,4.48-.15,7.17.09,3.05.27,6.03,1.06,8.96,2.38,3.32,1.49,6.03,2.86,9.22,3.93,5.29,1.77,10.85,2.24,16.69,1.41,4.07-.57,7.81-2.17,11.41-3.84,2.95-1.37,4.88-2.2,5.8-2.49,6.11-1.94,12.07-2.15,17.9-.64,2.64.69,5.85,2,9.63,3.95,3.69,1.9,7.46,3,11.33,3.29,5.14.39,10.52.05,16.12-1.01,2.64-.5,5.09-1.28,7.36-2.32.17-.08.35.09.29.27-.43,1.25-.98,2.48-1.64,3.7-.56,1.03-1.36,2.1-2.4,3.23-2.98,3.22-6.6,5.39-10.88,6.52-3.85,1.02-7.79,1.07-11.62.72-2.9-.27-5.74-1-8.53-2.2-.15-.07-1.64-.77-4.45-2.11-2.11-1-4.52-1.76-7.23-2.27-3.82-.72-7.58-.63-11.26.28-2.28.56-4.49,1.32-7.1,2.34-3.42,1.35-5.98,2.27-7.68,2.77-3.05.9-6.11,1.5-9.19,1.82-.74.07-2.44.11-5.09.11-2.04,0-3.74-.1-5.09-.28-3.25-.45-6.4-1.24-9.45-2.39-2.61-.98-6.16-2.91-8.75-3.75-4.07-1.32-8.29-1.55-12.65-.71-1.65.32-3.7.98-6.14,1.98-1.68.69-3.69,1.46-6.05,2.32-3.93,1.43-7.69,2.34-11.29,2.72-2.02.21-4.75.24-8.17.08-2.36-.11-4.97-.59-7.81-1.44-1.58-.47-3.69-1.33-6.33-2.57-2.14-1.01-4.24-1.91-6.3-2.7-1.26-.49-2.65-.84-4.17-1.04-2.1-.28-4.44-.22-7.02.17-1.7.26-3.54.81-5.52,1.66-1.2.52-2.97,1.26-5.32,2.23-1.8.74-3.85,1.41-6.14,2.02-.53.14-1.23.27-2.12.38-.81.1-1.52.17-2.14.2-2.5.12-4.71-.25-6.63-1.13-3.96-1.81-5.43-5.58-5.38-9.81,0-.1.1-.17.2-.15h0Z"/>
</svg>