<?xml version="1.0" encoding="UTF-8"?>
<svg id="Ebene_1" xmlns="http://www.w3.org/2000/svg" version="1.1" viewBox="0 0 123 127">
  <!-- Generator: Adobe Illustrator 29.8.2, SVG Export Plug-In . SVG Version: 2.1.1 Build 3)  -->
  <path d="M123,99.82s.13,1.52,0,2c-4.01,14.3-17.99,23.47-33,24.95-15.53,1.53-31.42.72-47,0-.14,0-1.13-.97-2.42-1.04-15.63-.89-38.59,1.66-39.58-19.92l109.46-7.03s12.54,1.04,12.54,1.04Z"/>
  <polygon points="58 0 62.01 86.85 13.01 88.84 57 0 58 0"/>
  <path d="M62,0c19.15,21.61,41.27,51.68,48.22,80.14.23.92,1.86,2.34-.73,1.73-2.94-.7-8.79-5.08-12.5-6.49-9.63-3.65-20.75-4.79-30.99-4.51l.99-23.44L61,0h1Z"/>
  <path d="M93,98.81l-63,4,3.66-8.81c14.85-1.37,31.51-5.03,46.39-2.71,5.06.79,10.33,2.86,12.95,7.53h0Z"/>
</svg>