<?xml version="1.0" encoding="UTF-8"?>
<svg id="Ebene_1" xmlns="http://www.w3.org/2000/svg" version="1.1" viewBox="0 0 54.43 56.92">
  <!-- Generator: Adobe Illustrator 29.8.2, SVG Export Plug-In . SVG Version: 2.1.1 Build 3)  -->
  <path d="M-20.06,99.82s.13,1.52,0,2c-4.01,14.3-17.99,23.47-33,24.95-15.53,1.53-31.42.72-47,0-.14,0-1.13-.97-2.42-1.04-15.63-.89-38.59,1.66-39.58-19.92l109.46-7.03s12.54,1.04,12.54,1.04Z"/>
  <polygon points="-85.06 0 -81.05 86.85 -130.05 88.84 -86.06 0 -85.06 0"/>
  <path d="M-81.06,0c19.15,21.61,41.27,51.68,48.22,80.14.23.92,1.86,2.34-.73,1.73-2.94-.7-8.79-5.08-12.5-6.49-9.63-3.65-20.75-4.79-30.99-4.51l.99-23.44L-82.06,0h1Z"/>
  <path d="M-50.06,98.81l-63,4,3.66-8.81c14.85-1.37,31.51-5.03,46.39-2.71,5.06.79,10.33,2.86,12.95,7.53h0Z"/>
  <path d="M54.4,44.51s.06.68,0,.89c-1.79,6.38-8.02,10.47-14.72,11.13-6.93.68-14.01.32-20.96,0-.06,0-.5-.43-1.08-.46-6.97-.4-17.21.74-17.65-8.88l48.81-3.13s5.59.46,5.59.46Z"/>
  <polygon points="25.42 0 27.21 38.73 5.36 39.62 24.97 0 25.42 0"/>
  <path d="M27.2,0c8.54,9.64,18.4,23.05,21.5,35.74.1.41.83,1.04-.33.77-1.31-.31-3.92-2.27-5.57-2.89-4.29-1.63-9.25-2.14-13.82-2.01l.44-10.45L26.76,0h.45Z"/>
  <path d="M41.03,44.06l-28.09,1.78,1.63-3.93c6.62-.61,14.05-2.24,20.69-1.21,2.26.35,4.61,1.28,5.77,3.36h0Z"/>
</svg>